<svg width="25" height="25" viewBox="0 0 25 25" fill="none" xmlns="http://www.w3.org/2000/svg">
<g id="material-symbols:edit-square-outline">
<path id="Vector" d="M5.20834 24.6875C4.63542 24.6875 4.14479 24.4836 3.73646 24.076C3.32813 23.6684 3.12431 23.1777 3.125 22.6041V8.02079C3.125 7.44788 3.32917 6.95725 3.7375 6.54892C4.14584 6.14058 4.63611 5.93676 5.20834 5.93746H14.5052L12.4219 8.02079H5.20834V22.6041H19.7917V15.3645L21.875 13.2812V22.6041C21.875 23.177 21.6708 23.6677 21.2625 24.076C20.8542 24.4843 20.3639 24.6882 19.7917 24.6875H5.20834ZM16.849 6.53642L18.3333 7.99475L11.4583 14.8698V16.3541H12.9167L19.8177 9.45308L21.3021 10.9114L13.8021 18.4375H9.375V14.0104L16.849 6.53642ZM21.3021 10.9114L16.849 6.53642L19.4531 3.93225C19.8698 3.51558 20.3691 3.30725 20.951 3.30725C21.533 3.30725 22.0233 3.51558 22.4219 3.93225L23.8802 5.41663C24.2795 5.81593 24.4792 6.30204 24.4792 6.87496C24.4792 7.44788 24.2795 7.93399 23.8802 8.33329L21.3021 10.9114Z" fill="#6A6180"/>
</g>
</svg>
