<svg width="26" height="22" viewBox="0 0 26 22" fill="none" xmlns="http://www.w3.org/2000/svg">
<g id="material-symbols:nest-clock-farsight-analog-outline-rounded">
<path id="Vector" d="M13.6843 11.0682L16.0527 13.1136C16.2457 13.2803 16.3422 13.4888 16.3422 13.7391C16.3422 13.9894 16.2457 14.2051 16.0527 14.3864C15.8422 14.5682 15.592 14.6591 15.3022 14.6591C15.0123 14.6591 14.7625 14.5682 14.5527 14.3864L11.8948 12.0909C11.7895 12 11.7106 11.8976 11.6579 11.7836C11.6053 11.6697 11.579 11.5524 11.579 11.4318V8.18181C11.579 7.92424 11.68 7.70818 11.8821 7.53363C12.0842 7.35909 12.3341 7.27212 12.6316 7.27272C12.9299 7.27272 13.18 7.35999 13.3821 7.53454C13.5843 7.70909 13.685 7.92484 13.6843 8.18181V11.0682ZM12.6316 5.45454C12.3334 5.45454 12.0832 5.36727 11.8811 5.19272C11.679 5.01818 11.5783 4.80242 11.579 4.54545V3.63636H13.6843V4.54545C13.6843 4.80302 13.5832 5.01909 13.3811 5.19363C13.179 5.36818 12.9292 5.45515 12.6316 5.45454ZM18.9474 10.9091C18.9474 10.6515 19.0485 10.4354 19.2506 10.2609C19.4527 10.0864 19.7025 9.99939 20.0001 9.99999H21.0527V11.8182H20.0001C19.7018 11.8182 19.4517 11.7309 19.2496 11.5564C19.0474 11.3818 18.9467 11.1661 18.9474 10.9091ZM12.6316 16.3636C12.9299 16.3636 13.18 16.4509 13.3821 16.6254C13.5843 16.8 13.685 17.0158 13.6843 17.2727V18.1818H11.579V17.2727C11.579 17.0151 11.68 16.7991 11.8821 16.6245C12.0842 16.45 12.3341 16.363 12.6316 16.3636ZM6.31578 10.9091C6.31578 11.1667 6.21473 11.3827 6.01262 11.5573C5.81051 11.7318 5.56069 11.8188 5.26314 11.8182H4.2105V9.99999H5.26314C5.56139 9.99999 5.81157 10.0873 6.01367 10.2618C6.21578 10.4364 6.31648 10.6521 6.31578 10.9091ZM12.6316 20C11.1755 20 9.80703 19.7612 8.52632 19.2836C7.24561 18.8061 6.13157 18.1585 5.18419 17.3409C4.23682 16.5227 3.48699 15.5606 2.9347 14.4545C2.38242 13.3485 2.10593 12.1667 2.10522 10.9091C2.10522 9.65151 2.38172 8.46969 2.9347 7.36363C3.48769 6.25757 4.23752 5.29545 5.18419 4.47727C6.13157 3.65909 7.24561 3.01151 8.52632 2.53454C9.80703 2.05757 11.1755 1.81878 12.6316 1.81818C14.0878 1.81818 15.4562 2.05696 16.7369 2.53454C18.0176 3.01212 19.1317 3.65969 20.079 4.47727C21.0264 5.29545 21.7766 6.25757 22.3296 7.36363C22.8826 8.46969 23.1587 9.65151 23.158 10.9091C23.158 12.1667 22.8815 13.3485 22.3285 14.4545C21.7755 15.5606 21.0257 16.5227 20.079 17.3409C19.1317 18.1591 18.0176 18.807 16.7369 19.2845C15.4562 19.7621 14.0878 20.0006 12.6316 20ZM21.0527 10.9091C21.0527 8.87878 20.2369 7.15909 18.6053 5.74999C16.9737 4.3409 14.9825 3.63636 12.6316 3.63636C10.2807 3.63636 8.28948 4.3409 6.65789 5.74999C5.0263 7.15909 4.2105 8.87878 4.2105 10.9091C4.2105 12.9394 5.0263 14.6591 6.65789 16.0682C8.28948 17.4773 10.2807 18.1818 12.6316 18.1818C14.9825 18.1818 16.9737 17.4773 18.6053 16.0682C20.2369 14.6591 21.0527 12.9394 21.0527 10.9091Z" fill="#6A6180"/>
</g>
</svg>
