<svg width="40" height="40" viewBox="0 0 40 40" fill="none" xmlns="http://www.w3.org/2000/svg">
<path d="M7.50004 3.33337C5.20004 3.33337 3.33337 5.20004 3.33337 7.50004V11.3734C3.33426 12.2645 3.57329 13.1392 4.02573 13.9069C4.47817 14.6747 5.12756 15.3075 5.90671 15.74L15.4934 21.07C13.4854 22.0838 11.8778 23.7449 10.9303 25.785C9.98291 27.8251 9.75098 30.1251 10.272 32.3133C10.793 34.5015 12.0366 36.4501 13.8018 37.8444C15.567 39.2386 17.7507 39.997 20 39.997C22.2494 39.997 24.4331 39.2386 26.1983 37.8444C27.9635 36.4501 29.207 34.5015 29.7281 32.3133C30.2491 30.1251 30.0172 27.8251 29.0697 25.785C28.1223 23.7449 26.5147 22.0838 24.5067 21.07L34.0967 15.7434C34.8757 15.3102 35.5248 14.6766 35.9766 13.9082C36.4285 13.1399 36.6667 12.2647 36.6667 11.3734V7.50004C36.6667 5.20004 34.8 3.33337 32.5 3.33337H7.50004ZM16.6667 17.9067V6.66671H23.3334V17.9067L20 19.76L16.6667 17.9067ZM26.6667 30C26.6667 31.7682 25.9643 33.4638 24.7141 34.7141C23.4638 35.9643 21.7682 36.6667 20 36.6667C18.2319 36.6667 16.5362 35.9643 15.286 34.7141C14.0358 33.4638 13.3334 31.7682 13.3334 30C13.3334 28.2319 14.0358 26.5362 15.286 25.286C16.5362 24.0358 18.2319 23.3334 20 23.3334C21.7682 23.3334 23.4638 24.0358 24.7141 25.286C25.9643 26.5362 26.6667 28.2319 26.6667 30Z" fill="white"/>
</svg>
