<svg width="40" height="40" viewBox="0 0 40 40" fill="none" xmlns="http://www.w3.org/2000/svg">
<g clip-path="url(#clip0_7_694)">
<path d="M32.5444 5.49998H24.5444C24.2247 4.54951 23.6146 3.72341 22.8002 3.13819C21.9859 2.55297 21.0084 2.23816 20.0055 2.23816C19.0027 2.23816 18.0252 2.55297 17.2109 3.13819C16.3965 3.72341 15.7864 4.54951 15.4667 5.49998H7.77776C7.50566 5.46062 7.2283 5.47942 6.96399 5.55513C6.69968 5.63084 6.45443 5.76174 6.24443 5.93919C6.03442 6.11664 5.86444 6.33661 5.74569 6.58459C5.62695 6.83256 5.56214 7.1029 5.55554 7.37775V35.8444C5.557 36.0925 5.6073 36.3378 5.70357 36.5664C5.79984 36.795 5.9402 37.0024 6.11663 37.1768C6.29306 37.3512 6.50211 37.4891 6.73184 37.5827C6.96158 37.6763 7.20749 37.7237 7.45554 37.7222H32.5444C32.7925 37.7237 33.0384 37.6763 33.2681 37.5827C33.4979 37.4891 33.7069 37.3512 33.8833 37.1768C34.0598 37.0024 34.2001 36.795 34.2964 36.5664C34.3927 36.3378 34.443 36.0925 34.4444 35.8444V7.37775C34.443 7.1297 34.3927 6.88436 34.2964 6.65575C34.2001 6.42713 34.0598 6.21972 33.8833 6.04535C33.7069 5.87099 33.4979 5.73308 33.2681 5.6395C33.0384 5.54592 32.7925 5.49851 32.5444 5.49998ZM12.5444 8.83331C12.5444 8.53863 12.6615 8.25601 12.8699 8.04764C13.0782 7.83926 13.3609 7.7222 13.6555 7.7222H17.4778V7.0222C17.4778 6.34 17.7488 5.68575 18.2312 5.20336C18.7135 4.72098 19.3678 4.44998 20.05 4.44998C20.7322 4.44998 21.3864 4.72098 21.8688 5.20336C22.3512 5.68575 22.6222 6.34 22.6222 7.0222V7.77776H26.4444C26.7391 7.77776 27.0217 7.89482 27.2301 8.10319C27.4385 8.31157 27.5555 8.59418 27.5555 8.88887V10.8889H12.5L12.5444 8.83331ZM28.6778 19.0889L18.5444 29.2222L12.7222 23.4C12.4275 23.1053 12.262 22.7056 12.262 22.2889C12.262 21.8721 12.4275 21.4724 12.7222 21.1778C13.0169 20.8831 13.4166 20.7175 13.8333 20.7175C14.2501 20.7175 14.6497 20.8831 14.9444 21.1778L18.5667 24.8L26.5 16.8666C26.7947 16.572 27.1944 16.4064 27.6111 16.4064C28.0278 16.4064 28.4275 16.572 28.7222 16.8666C29.0169 17.1613 29.1824 17.561 29.1824 17.9778C29.1824 18.3945 29.0169 18.7942 28.7222 19.0889H28.6778Z" fill="white"/>
</g>
<defs>
<clipPath id="clip0_7_694">
<rect width="40" height="40" fill="white"/>
</clipPath>
</defs>
</svg>
